<svg version="1.1" id="Layer_1" xmlns="http://www.w3.org/2000/svg" xmlns:xlink="http://www.w3.org/1999/xlink" x="0px" y="0px"
	 width="100%" viewBox="0 0 512 512" enable-background="new 0 0 512 512" xml:space="preserve">
<path fill="#FEFEFE" opacity="1.000000" stroke="none" 
	d="
M513.000000,385.000000 
	C513.000000,427.613739 513.000000,470.227448 513.000000,513.000000 
	C438.312500,513.000000 363.624908,513.000000 288.652710,512.607544 
	C299.628021,511.126892 310.957306,510.495056 322.124390,508.796631 
	C330.104492,507.582916 337.948639,505.204407 345.694733,502.828186 
	C350.079865,501.483002 352.812469,498.488586 352.300201,493.105988 
	C351.797211,487.821136 351.998627,482.452545 352.142212,477.127472 
	C352.291840,471.578156 349.270966,468.557220 344.502380,466.772156 
	C343.001404,466.210266 341.423370,465.854156 339.755493,465.367340 
	C340.459595,458.747559 335.402954,457.157837 331.033722,456.231232 
	C319.358704,453.755188 307.572113,451.699310 295.748322,450.067291 
	C287.643646,448.948639 279.402344,448.819763 270.827545,448.220856 
	C277.333710,439.985046 277.443512,439.850006 269.769653,433.609772 
	C267.381592,431.667847 266.839233,429.679138 266.840942,426.837921 
	C266.902466,323.734161 266.867249,220.630341 266.963959,117.526657 
	C266.969269,111.833878 267.336975,106.426323 260.365265,104.257309 
	C262.953461,101.967018 265.010376,100.146843 267.244232,98.170113 
	C266.119385,96.702774 265.251831,95.571045 265.161743,95.453545 
	C266.284058,92.205215 267.089508,89.701149 268.022461,87.245522 
	C268.499512,85.989807 268.880341,84.274384 269.855957,83.694878 
	C283.822388,75.399055 298.866150,70.710747 315.098907,73.718239 
	C325.638458,75.670929 335.975830,79.047913 346.153412,82.520584 
	C355.012604,85.543411 363.649017,86.060509 372.557831,83.409286 
	C377.166718,82.037697 381.789795,80.711906 386.423218,79.425758 
	C388.205048,78.931160 390.033417,78.604164 392.628571,78.024910 
	C388.218414,89.273872 383.225952,99.658463 395.079193,109.689682 
	C389.505371,109.543808 390.162231,112.916374 390.065308,115.875305 
	C389.738495,125.854637 389.626251,135.848083 388.981812,145.807007 
	C388.646942,150.981689 386.432495,151.978912 382.065613,149.830658 
	C378.082458,147.871185 375.551880,149.226318 376.240204,153.502213 
	C376.587952,155.662643 378.815430,157.567337 380.337280,159.472382 
	C381.109650,160.439255 382.201965,161.150558 382.965271,162.293976 
	C365.719238,211.481354 348.673553,260.357697 331.588501,309.220276 
	C324.144470,330.509979 316.619781,351.771484 308.976746,373.380493 
	C308.123474,376.583221 306.480804,378.041840 303.374756,378.470551 
	C300.462067,378.872528 297.631012,380.038574 294.833954,381.059937 
	C291.639038,382.226562 290.864594,384.440308 292.737671,387.330353 
	C294.631134,390.251892 296.423828,393.282654 298.654816,395.933899 
	C308.088501,407.144501 319.237152,416.381226 332.283752,423.032837 
	C375.085724,444.854706 418.685852,444.627777 462.361633,426.228851 
	C483.050873,417.513245 500.934052,404.650848 513.000000,385.000000 
z"/>
<path fill="#FEFEFE" opacity="1.000000" stroke="none" 
	d="
M225.000000,513.000000 
	C150.426498,513.000000 75.852989,513.000000 1.000000,513.000000 
	C1.000000,470.979523 1.000000,428.958405 1.307076,386.626709 
	C3.194882,388.840759 4.569458,391.526031 6.390575,393.863434 
	C16.468002,406.797974 29.091938,416.724365 43.606724,424.152863 
	C75.772781,440.615082 109.704521,442.879333 144.476807,435.382202 
	C171.771057,429.497375 195.507812,416.752136 214.455902,395.903229 
	C217.688965,392.345795 220.140152,388.077820 223.772156,382.989960 
	C218.137100,381.730438 214.124390,380.963654 210.188873,379.908844 
	C207.487823,379.184937 203.943619,379.841614 202.826813,375.655762 
	C187.049973,330.877258 171.257431,286.480804 155.514725,242.066696 
	C148.375565,221.925339 141.335297,201.748917 134.214294,181.215424 
	C131.945190,174.104828 129.711945,167.367233 127.499466,160.692230 
	C129.506912,159.822540 131.960052,159.541534 132.645126,158.291519 
	C133.869537,156.057358 134.027740,153.238876 134.631683,150.664673 
	C132.894577,150.299072 130.883530,149.183563 129.468796,149.700409 
	C123.954628,151.714874 122.240227,150.955032 121.927994,144.929749 
	C121.453888,135.781143 121.196541,126.616562 121.085747,117.455887 
	C121.030281,112.870316 121.156441,108.553627 112.942001,110.275108 
	C129.625946,101.107491 121.982933,89.376015 118.676811,77.810059 
	C124.364006,79.445755 129.362183,80.620651 134.175018,82.320351 
	C145.334671,86.261497 156.304596,86.159698 167.296051,81.717773 
	C171.291077,80.103279 175.440750,78.872887 179.513123,77.448013 
	C199.963486,70.292610 219.756714,71.669868 238.717010,82.271904 
	C240.470779,83.252556 241.812164,85.365952 242.787491,87.243073 
	C243.996109,89.569168 244.622787,92.197632 245.739441,95.374168 
	C245.561234,95.643440 244.756805,96.858856 243.765320,98.356926 
	C245.782318,100.267685 247.655319,102.042023 248.528244,102.868958 
	C246.931549,106.716034 244.428772,109.939468 244.422913,113.167427 
	C244.236237,215.999649 244.258072,318.832367 244.403427,421.664764 
	C244.411118,427.109924 243.792282,431.678802 239.102692,435.144379 
	C237.286682,436.486420 236.047821,438.609467 234.362595,440.592529 
	C236.171707,443.050873 237.878922,445.370758 239.935913,448.165924 
	C235.132019,448.473938 230.984512,448.718445 226.840256,449.009369 
	C210.551773,450.152863 194.328461,451.734528 178.731842,456.999603 
	C174.403030,458.460907 170.069397,460.109131 170.844788,465.942139 
	C160.607468,468.541138 158.704971,470.988525 158.701233,481.275482 
	C158.700195,484.108765 158.721039,486.942078 158.731323,489.775360 
	C158.768250,499.956940 159.192566,501.619263 169.364227,504.016449 
	C182.580841,507.131226 196.133026,508.840546 209.561096,511.030121 
	C214.678421,511.864532 219.852036,512.353577 225.000000,513.000000 
z"/>
<path fill="#040404" opacity="1.000000" stroke="none" 
	d="
M202.831436,376.030579 
	C203.943619,379.841614 207.487823,379.184937 210.188873,379.908844 
	C214.124390,380.963654 218.137100,381.730438 223.772156,382.989960 
	C220.140152,388.077820 217.688965,392.345795 214.455902,395.903229 
	C195.507812,416.752136 171.771057,429.497375 144.476807,435.382202 
	C109.704521,442.879333 75.772781,440.615082 43.606724,424.152863 
	C29.091938,416.724365 16.468002,406.797974 6.390575,393.863434 
	C4.569458,391.526031 3.194882,388.840759 1.307076,386.158020 
	C1.000000,385.250000 1.000000,384.500000 1.310517,383.211823 
	C6.758688,380.786316 11.896340,378.898956 17.288687,376.903168 
	C18.399441,376.846191 19.255503,376.897644 20.511528,376.886780 
	C50.397137,374.555695 79.882782,372.286926 109.773979,369.986938 
	C109.652199,370.424042 109.895599,369.961029 109.893692,369.499054 
	C109.615128,302.059326 109.320259,234.619675 109.008667,167.180069 
	C109.004173,166.207794 109.135063,164.690353 108.606285,164.347610 
	C101.881042,159.988434 105.780022,154.580017 106.743828,149.279602 
	C107.606590,144.534821 107.705688,139.651184 108.141716,134.828796 
	C107.341148,134.774139 106.540588,134.719467 105.740028,134.664810 
	C105.155357,139.369720 104.860680,144.136124 103.881119,148.757324 
	C103.258148,151.696213 102.331261,156.031631 100.297897,156.930984 
	C94.669487,159.420349 93.594955,164.242355 91.573807,168.968536 
	C90.916611,168.983383 90.541458,169.002213 90.188416,168.651978 
	C91.090668,165.658600 91.970818,163.034271 92.925156,160.188736 
	C91.249741,159.620285 89.745941,159.342056 88.480965,158.635986 
	C85.112747,156.755981 85.595367,153.614105 86.517914,150.729065 
	C87.580811,147.405075 89.870522,149.179230 91.797951,149.897644 
	C96.376747,151.604263 98.511124,150.731110 98.986656,145.844360 
	C99.968307,135.756424 100.526749,125.620110 100.970070,115.491043 
	C101.117943,112.112602 101.477325,109.517975 105.415077,109.847687 
	C102.469254,105.348595 99.643318,101.032616 96.876541,96.806992 
	C102.827950,91.958275 103.336563,92.010956 108.587959,96.058762 
	C109.477730,96.744598 111.296135,97.268669 112.049820,96.813919 
	C112.916733,96.290833 113.503090,94.586090 113.473793,93.412994 
	C113.308929,86.811050 109.089874,83.085861 103.920471,80.083107 
	C101.703239,81.709763 101.233459,86.500984 97.002312,82.954140 
	C92.180984,78.912582 89.934387,74.143875 92.089706,71.415436 
	C95.769806,66.756767 99.809555,65.472733 103.143883,68.152069 
	C109.654007,61.029121 116.947220,60.503777 124.830460,65.983887 
	C126.047371,66.829826 127.482941,67.356056 128.795273,68.070747 
	C137.999969,73.083588 147.063477,73.230675 156.232712,67.767197 
	C161.936111,64.368835 167.865387,61.338039 173.770599,58.292187 
	C188.410706,50.740955 203.849640,48.950512 219.772461,52.858849 
	C227.410980,54.733753 234.815445,57.562222 242.551926,60.030968 
	C243.595093,55.289818 241.161926,49.604702 246.088516,45.828129 
	C246.449448,45.551445 246.138748,44.515682 246.344864,43.901489 
	C248.020554,38.908714 242.379089,38.666325 240.490265,35.161839 
	C243.340790,33.827572 245.944412,32.608868 249.369583,31.005621 
	C248.438202,29.359127 247.610641,27.731764 246.630707,26.202013 
	C245.122742,23.847980 242.984283,21.755619 242.041489,19.208664 
	C239.299026,11.799874 243.486389,5.122177 253.000000,1.000000 
	C254.388901,1.000000 255.777786,1.000000 257.724854,1.330993 
	C270.519165,5.263478 273.442474,17.496328 264.188171,26.372473 
	C260.698578,29.719479 261.007355,31.207651 265.371063,32.857864 
	C267.102966,33.512825 268.710205,34.497490 270.980072,35.635921 
	C269.551117,36.809711 268.886230,37.519131 268.081268,37.988052 
	C265.035645,39.762211 264.019012,44.016880 265.513306,47.049423 
	C266.679443,49.415936 267.408966,52.058151 267.936340,54.658203 
	C268.305756,56.479385 268.007660,58.435966 268.007660,60.357979 
	C269.077026,60.267838 269.423157,60.318306 269.698547,60.201733 
	C270.922363,59.683746 272.118774,59.101406 273.337891,58.571842 
	C290.965271,50.914848 309.185364,47.663345 327.649445,54.377388 
	C337.877563,58.096615 347.433929,63.746880 357.108704,68.874641 
	C363.579407,72.304207 370.050140,73.027664 376.760681,70.295784 
	C381.053772,68.548042 385.352997,66.654572 389.296814,64.248398 
	C394.846283,60.862591 399.740234,62.075916 404.615234,65.359116 
	C405.831390,66.178177 406.918030,67.189568 408.064209,68.112556 
	C408.232666,67.699562 408.401123,67.286560 408.569580,66.873558 
	C410.243439,66.993530 412.410461,66.495811 413.491272,67.358635 
	C415.940430,69.313904 419.728882,72.045029 419.603607,74.271042 
	C419.325989,79.203720 415.337158,82.483925 410.675446,84.683014 
	C409.305267,82.897720 408.148804,81.390869 406.157806,78.796669 
	C403.098755,83.108009 400.112976,86.596535 398.058685,90.567001 
	C397.242188,92.145073 398.489532,94.790947 398.797272,96.950684 
	C400.563416,96.072311 402.744019,95.584007 404.012054,94.236786 
	C406.924530,91.142471 409.375641,93.415657 411.435791,94.839966 
	C412.359650,95.478691 412.654358,98.387939 412.019043,99.659561 
	C410.292664,103.114960 407.917267,106.246071 406.645782,108.202759 
	C407.947144,111.220917 409.594788,113.443535 409.795837,115.790077 
	C410.591125,125.074150 410.590393,134.432678 411.553253,143.694122 
	C412.307007,150.944366 413.690308,151.563690 420.335876,149.286560 
	C423.410706,148.232941 424.539917,149.296921 425.032532,152.283493 
	C425.959076,157.900787 422.130890,159.005447 417.841003,160.106827 
	C417.140137,160.429764 416.687927,160.681641 416.074036,160.616272 
	C409.235046,157.923401 406.682953,152.976990 406.810120,146.147751 
	C406.855988,143.683701 406.442291,141.174820 405.933685,138.750275 
	C405.626129,137.283997 404.733734,135.940384 404.104095,134.541656 
	C403.416565,134.763290 402.729004,134.984909 402.041443,135.206543 
	C403.144623,140.584473 404.632324,145.920746 405.220978,151.354416 
	C405.640656,155.228256 405.911682,159.805649 404.204926,162.964752 
	C403.180237,164.861404 401.993103,166.445969 401.968353,168.682083 
	C401.834320,180.788498 401.707336,192.895020 401.352417,205.007599 
	C400.826172,205.014984 400.525421,205.011444 400.176086,204.536224 
	C400.089539,193.081451 400.183655,182.090485 399.931030,171.107483 
	C399.858063,167.935410 401.778046,163.838181 396.993439,161.936676 
	C396.481079,161.733047 396.309570,160.088120 396.368622,159.135895 
	C396.573334,155.834137 397.018097,152.547714 397.244263,149.246719 
	C397.571625,144.468338 397.787994,139.682327 398.051727,134.899582 
	C397.413452,134.834839 396.775177,134.770081 396.136902,134.705338 
	C395.528320,136.839890 394.542206,138.945923 394.378418,141.114075 
	C393.763367,149.256607 393.295074,157.365021 384.663025,162.003571 
	C383.956818,162.001862 383.553223,161.989624 383.149658,161.977386 
	C382.201965,161.150558 381.109650,160.439255 380.337280,159.472382 
	C378.815430,157.567337 376.587952,155.662643 376.240204,153.502213 
	C375.551880,149.226318 378.082458,147.871185 382.065613,149.830658 
	C386.432495,151.978912 388.646942,150.981689 388.981812,145.807007 
	C389.626251,135.848083 389.738495,125.854637 390.065308,115.875305 
	C390.162231,112.916374 389.505371,109.543808 395.079193,109.689682 
	C383.225952,99.658463 388.218414,89.273872 392.628571,78.024910 
	C390.033417,78.604164 388.205048,78.931160 386.423218,79.425758 
	C381.789795,80.711906 377.166718,82.037697 372.557831,83.409286 
	C363.649017,86.060509 355.012604,85.543411 346.153412,82.520584 
	C335.975830,79.047913 325.638458,75.670929 315.098907,73.718239 
	C298.866150,70.710747 283.822388,75.399055 269.855957,83.694878 
	C268.880341,84.274384 268.499512,85.989807 268.022461,87.245522 
	C267.089508,89.701149 266.284058,92.205215 265.161743,95.453545 
	C265.251831,95.571045 266.119385,96.702774 267.244232,98.170113 
	C265.010376,100.146843 262.953461,101.967018 260.365265,104.257309 
	C267.336975,106.426323 266.969269,111.833878 266.963959,117.526657 
	C266.867249,220.630341 266.902466,323.734161 266.840942,426.837921 
	C266.839233,429.679138 267.381592,431.667847 269.769653,433.609772 
	C277.443512,439.850006 277.333710,439.985046 270.827545,448.220856 
	C279.402344,448.819763 287.643646,448.948639 295.748322,450.067291 
	C307.572113,451.699310 319.358704,453.755188 331.033722,456.231232 
	C335.402954,457.157837 340.459595,458.747559 339.755493,465.367340 
	C341.423370,465.854156 343.001404,466.210266 344.502380,466.772156 
	C349.270966,468.557220 352.291840,471.578156 352.142212,477.127472 
	C351.998627,482.452545 351.797211,487.821136 352.300201,493.105988 
	C352.812469,498.488586 350.079865,501.483002 345.694733,502.828186 
	C337.948639,505.204407 330.104492,507.582916 322.124390,508.796631 
	C310.957306,510.495056 299.628021,511.126892 288.184082,512.607544 
	C283.310760,513.000000 278.621490,513.000000 273.207703,512.664062 
	C262.187439,512.224487 251.891815,512.106201 241.595856,512.059937 
	C241.065338,512.057556 240.532013,512.672485 240.000000,513.000000 
	C235.310745,513.000000 230.621490,513.000000 225.466125,513.000000 
	C219.852036,512.353577 214.678421,511.864532 209.561096,511.030121 
	C196.133026,508.840546 182.580841,507.131226 169.364227,504.016449 
	C159.192566,501.619263 158.768250,499.956940 158.731323,489.775360 
	C158.721039,486.942078 158.700195,484.108765 158.701233,481.275482 
	C158.704971,470.988525 160.607468,468.541138 170.844788,465.942139 
	C170.069397,460.109131 174.403030,458.460907 178.731842,456.999603 
	C194.328461,451.734528 210.551773,450.152863 226.840256,449.009369 
	C230.984512,448.718445 235.132019,448.473938 239.935913,448.165924 
	C237.878922,445.370758 236.171707,443.050873 234.362595,440.592529 
	C236.047821,438.609467 237.286682,436.486420 239.102692,435.144379 
	C243.792282,431.678802 244.411118,427.109924 244.403427,421.664764 
	C244.258072,318.832367 244.236237,215.999649 244.422913,113.167427 
	C244.428772,109.939468 246.931549,106.716034 248.528244,102.868958 
	C247.655319,102.042023 245.782318,100.267685 243.765320,98.356926 
	C244.756805,96.858856 245.561234,95.643440 245.739441,95.374168 
	C244.622787,92.197632 243.996109,89.569168 242.787491,87.243073 
	C241.812164,85.365952 240.470779,83.252556 238.717010,82.271904 
	C219.756714,71.669868 199.963486,70.292610 179.513123,77.448013 
	C175.440750,78.872887 171.291077,80.103279 167.296051,81.717773 
	C156.304596,86.159698 145.334671,86.261497 134.175018,82.320351 
	C129.362183,80.620651 124.364006,79.445755 118.676811,77.810059 
	C121.982933,89.376015 129.625946,101.107491 112.942001,110.275108 
	C121.156441,108.553627 121.030281,112.870316 121.085747,117.455887 
	C121.196541,126.616562 121.453888,135.781143 121.927994,144.929749 
	C122.240227,150.955032 123.954628,151.714874 129.468796,149.700409 
	C130.883530,149.183563 132.894577,150.299072 134.631683,150.664673 
	C134.027740,153.238876 133.869537,156.057358 132.645126,158.291519 
	C131.960052,159.541534 129.506912,159.822540 127.499466,160.692230 
	C129.711945,167.367233 131.945190,174.104828 134.063477,181.472977 
	C133.685776,182.393051 133.422989,182.682587 133.020081,182.627319 
	C131.983536,179.785980 131.168518,177.256516 130.174850,174.799301 
	C127.598244,168.427643 127.570732,160.707794 120.210411,156.825470 
	C118.964005,156.168045 118.384361,153.712982 118.047729,151.981323 
	C117.446106,148.886520 117.400490,145.686691 116.865425,142.574951 
	C116.403381,139.887833 115.584290,137.262131 114.923042,134.609268 
	C114.220764,134.743195 113.518486,134.877121 112.816208,135.011032 
	C113.224525,140.189163 113.759041,145.361420 114.000008,150.547318 
	C114.182930,154.483948 115.564262,160.087265 113.580574,161.977997 
	C110.939995,164.494888 111.252708,166.577850 111.257584,169.062881 
	C111.359558,221.055038 111.532898,273.047028 111.668182,325.039124 
	C111.708000,340.342682 111.674316,355.646484 111.674316,371.064850 
	C113.139549,371.187408 113.940765,371.265564 114.743599,371.319916 
	C132.522949,372.523926 150.311844,373.603668 168.078232,374.975281 
	C177.868530,375.731140 187.615814,377.032928 197.396545,377.936249 
	C198.764771,378.062622 201.406693,379.557495 201.402435,376.018921 
	C202.069336,376.023529 202.450378,376.027039 202.831436,376.030579 
M110.624039,115.646416 
	C109.563393,116.075890 108.502747,116.505363 107.442101,116.934822 
	C108.407234,117.935196 109.309677,119.650848 110.354462,119.742409 
	C111.485046,119.841499 112.748459,118.425072 113.953934,117.669624 
	C113.117348,117.010323 112.280769,116.351013 110.624039,115.646416 
M397.151794,115.033417 
	C396.895874,117.748482 397.002350,120.126953 400.773285,119.960533 
	C404.306122,119.804604 404.036133,117.685570 403.789001,115.719887 
	C401.471344,115.291481 399.638763,114.952751 397.151794,115.033417 
z"/>
<path fill="#FEFEFE" opacity="1.000000" stroke="none" 
	d="
M418.089691,160.035751 
	C422.130890,159.005447 425.959076,157.900787 425.032532,152.283493 
	C424.539917,149.296921 423.410706,148.232941 420.335876,149.286560 
	C413.690308,151.563690 412.307007,150.944366 411.553253,143.694122 
	C410.590393,134.432678 410.591125,125.074150 409.795837,115.790077 
	C409.594788,113.443535 407.947144,111.220917 406.645782,108.202759 
	C407.917267,106.246071 410.292664,103.114960 412.019043,99.659561 
	C412.654358,98.387939 412.359650,95.478691 411.435791,94.839966 
	C409.375641,93.415657 406.924530,91.142471 404.012054,94.236786 
	C402.744019,95.584007 400.563416,96.072311 398.797272,96.950684 
	C398.489532,94.790947 397.242188,92.145073 398.058685,90.567001 
	C400.112976,86.596535 403.098755,83.108009 406.157806,78.796669 
	C408.148804,81.390869 409.305267,82.897720 410.675446,84.683014 
	C415.337158,82.483925 419.325989,79.203720 419.603607,74.271042 
	C419.728882,72.045029 415.940430,69.313904 413.491272,67.358635 
	C412.410461,66.495811 410.243439,66.993530 408.569580,66.873558 
	C408.401123,67.286560 408.232666,67.699562 408.064209,68.112556 
	C406.918030,67.189568 405.831390,66.178177 404.615234,65.359116 
	C399.740234,62.075916 394.846283,60.862591 389.296814,64.248398 
	C385.352997,66.654572 381.053772,68.548042 376.760681,70.295784 
	C370.050140,73.027664 363.579407,72.304207 357.108704,68.874641 
	C347.433929,63.746880 337.877563,58.096615 327.649445,54.377388 
	C309.185364,47.663345 290.965271,50.914848 273.337891,58.571842 
	C272.118774,59.101406 270.922363,59.683746 269.698547,60.201733 
	C269.423157,60.318306 269.077026,60.267838 268.007660,60.357979 
	C268.007660,58.435966 268.305756,56.479385 267.936340,54.658203 
	C267.408966,52.058151 266.679443,49.415936 265.513306,47.049423 
	C264.019012,44.016880 265.035645,39.762211 268.081268,37.988052 
	C268.886230,37.519131 269.551117,36.809711 270.980072,35.635921 
	C268.710205,34.497490 267.102966,33.512825 265.371063,32.857864 
	C261.007355,31.207651 260.698578,29.719479 264.188171,26.372473 
	C273.442474,17.496328 270.519165,5.263478 258.141541,1.330993 
	C342.941589,1.000000 427.883179,1.000000 513.000000,1.000000 
	C513.000000,128.020844 513.000000,255.041763 512.622803,382.493958 
	C506.180176,381.279236 500.114716,379.633270 494.044342,377.602966 
	C485.889435,354.267090 477.632935,331.352692 469.611298,308.356354 
	C452.373291,258.938538 435.256256,209.478500 418.089691,160.035751 
z"/>
<path fill="#FEFEFE" opacity="1.000000" stroke="none" 
	d="
M252.531342,1.000000 
	C243.486389,5.122177 239.299026,11.799874 242.041489,19.208664 
	C242.984283,21.755619 245.122742,23.847980 246.630707,26.202013 
	C247.610641,27.731764 248.438202,29.359127 249.369583,31.005621 
	C245.944412,32.608868 243.340790,33.827572 240.490265,35.161839 
	C242.379089,38.666325 248.020554,38.908714 246.344864,43.901489 
	C246.138748,44.515682 246.449448,45.551445 246.088516,45.828129 
	C241.161926,49.604702 243.595093,55.289818 242.551926,60.030968 
	C234.815445,57.562222 227.410980,54.733753 219.772461,52.858849 
	C203.849640,48.950512 188.410706,50.740955 173.770599,58.292187 
	C167.865387,61.338039 161.936111,64.368835 156.232712,67.767197 
	C147.063477,73.230675 137.999969,73.083588 128.795273,68.070747 
	C127.482941,67.356056 126.047371,66.829826 124.830460,65.983887 
	C116.947220,60.503777 109.654007,61.029121 103.143883,68.152069 
	C99.809555,65.472733 95.769806,66.756767 92.089706,71.415436 
	C89.934387,74.143875 92.180984,78.912582 97.002312,82.954140 
	C101.233459,86.500984 101.703239,81.709763 103.920471,80.083107 
	C109.089874,83.085861 113.308929,86.811050 113.473793,93.412994 
	C113.503090,94.586090 112.916733,96.290833 112.049820,96.813919 
	C111.296135,97.268669 109.477730,96.744598 108.587959,96.058762 
	C103.336563,92.010956 102.827950,91.958275 96.876541,96.806992 
	C99.643318,101.032616 102.469254,105.348595 105.415077,109.847687 
	C101.477325,109.517975 101.117943,112.112602 100.970070,115.491043 
	C100.526749,125.620110 99.968307,135.756424 98.986656,145.844360 
	C98.511124,150.731110 96.376747,151.604263 91.797951,149.897644 
	C89.870522,149.179230 87.580811,147.405075 86.517914,150.729065 
	C85.595367,153.614105 85.112747,156.755981 88.480965,158.635986 
	C89.745941,159.342056 91.249741,159.620285 92.925156,160.188736 
	C91.970818,163.034271 91.090668,165.658600 89.989983,168.950958 
	C76.073235,208.910706 62.426701,248.219833 48.664627,287.488464 
	C38.197189,317.356171 27.582924,347.172455 17.033991,377.011597 
	C11.896340,378.898956 6.758688,380.786316 1.310517,382.836823 
	C1.000000,255.754578 1.000000,128.509155 1.000000,1.000000 
	C84.687378,1.000000 168.375031,1.000000 252.531342,1.000000 
z"/>
<path fill="#020202" opacity="1.000000" stroke="none" 
	d="
M494.049225,377.987305 
	C500.114716,379.633270 506.180176,381.279236 512.622803,382.962585 
	C513.000000,383.444458 513.000000,383.888885 513.000000,384.666687 
	C500.934052,404.650848 483.050873,417.513245 462.361633,426.228851 
	C418.685852,444.627777 375.085724,444.854706 332.283752,423.032837 
	C319.237152,416.381226 308.088501,407.144501 298.654816,395.933899 
	C296.423828,393.282654 294.631134,390.251892 292.737671,387.330353 
	C290.864594,384.440308 291.639038,382.226562 294.833954,381.059937 
	C297.631012,380.038574 300.462067,378.872528 303.374756,378.470551 
	C306.480804,378.041840 308.123474,376.583221 309.222137,373.545959 
	C309.831970,373.711487 310.041473,374.046265 310.232788,374.764221 
	C311.218231,375.635193 312.254974,376.605988 313.220673,376.539795 
	C334.622162,375.073425 356.007507,373.361694 377.415527,372.006012 
	C384.664001,371.546997 391.966034,371.933289 399.676117,371.933289 
	C399.676117,369.208557 399.674194,367.748383 399.676422,366.288239 
	C399.755310,314.510101 399.831238,262.731934 399.926575,210.953812 
	C399.930206,208.970047 400.121124,206.986633 400.224762,205.003067 
	C400.525421,205.011444 400.826172,205.014984 401.453247,205.466461 
	C401.779541,260.950134 401.779541,315.981079 401.779541,370.840210 
	C421.208160,372.224976 440.635590,373.521484 460.046722,375.027985 
	C470.775085,375.860626 481.476135,377.045135 492.500458,378.078003 
	C493.223999,378.052399 493.636627,378.019867 494.049225,377.987305 
z"/>
<path fill="#494949" opacity="1.000000" stroke="none" 
	d="
M240.468658,513.000000 
	C240.532013,512.672485 241.065338,512.057556 241.595856,512.059937 
	C251.891815,512.106201 262.187439,512.224487 272.741577,512.664062 
	C262.312439,513.000000 251.624878,513.000000 240.468658,513.000000 
z"/>
<path fill="#262626" opacity="1.000000" stroke="none" 
	d="
M310.250977,374.381012 
	C310.041473,374.046265 309.831970,373.711487 309.377075,373.211243 
	C316.619781,351.771484 324.144470,330.509979 331.588501,309.220276 
	C348.673553,260.357697 365.719238,211.481354 382.965271,162.293976 
	C383.553223,161.989624 383.956818,162.001862 384.677063,162.382843 
	C384.730225,163.360306 384.427185,163.955231 384.208832,164.579773 
	C365.806458,217.217484 347.456085,269.873474 328.988434,322.488251 
	C322.897888,339.840332 316.505402,357.086456 310.250977,374.381012 
z"/>
<path fill="#272727" opacity="1.000000" stroke="none" 
	d="
M202.826813,375.655762 
	C202.450378,376.027039 202.069336,376.023529 201.205765,375.711182 
	C187.784988,338.995056 174.754822,302.620056 161.938431,266.169861 
	C152.204697,238.486862 142.742966,210.708206 133.160217,182.972122 
	C133.422989,182.682587 133.685776,182.393051 134.099365,181.845963 
	C141.335297,201.748917 148.375565,221.925339 155.514725,242.066696 
	C171.257431,286.480804 187.049973,330.877258 202.826813,375.655762 
z"/>
<path fill="#FDFDFD" opacity="1.000000" stroke="none" 
	d="
M91.855858,168.972534 
	C93.594955,164.242355 94.669487,159.420349 100.297897,156.930984 
	C102.331261,156.031631 103.258148,151.696213 103.881119,148.757324 
	C104.860680,144.136124 105.155357,139.369720 105.740028,134.664810 
	C106.540588,134.719467 107.341148,134.774139 108.141716,134.828796 
	C107.705688,139.651184 107.606590,144.534821 106.743828,149.279602 
	C105.780022,154.580017 101.881042,159.988434 108.606285,164.347610 
	C109.135063,164.690353 109.004173,166.207794 109.008667,167.180069 
	C109.320259,234.619675 109.615128,302.059326 109.893692,369.499054 
	C109.895599,369.961029 109.652199,370.424042 109.773979,369.986938 
	C79.882782,372.286926 50.397137,374.555695 20.319820,376.523926 
	C20.191219,374.463745 20.530144,372.660126 21.135578,370.950928 
	C34.927715,332.014221 48.853207,293.124390 62.529968,254.147278 
	C72.471855,225.814148 82.092163,197.368195 91.855858,168.972534 
z"/>
<path fill="#FDFDFD" opacity="1.000000" stroke="none" 
	d="
M492.189514,378.071075 
	C481.476135,377.045135 470.775085,375.860626 460.046722,375.027985 
	C440.635590,373.521484 421.208160,372.224976 401.779541,370.840210 
	C401.779541,315.981079 401.779541,260.950134 401.678711,205.460342 
	C401.707336,192.895020 401.834320,180.788498 401.968353,168.682083 
	C401.993103,166.445969 403.180237,164.861404 404.204926,162.964752 
	C405.911682,159.805649 405.640656,155.228256 405.220978,151.354416 
	C404.632324,145.920746 403.144623,140.584473 402.041443,135.206543 
	C402.729004,134.984909 403.416565,134.763290 404.104095,134.541656 
	C404.733734,135.940384 405.626129,137.283997 405.933685,138.750275 
	C406.442291,141.174820 406.855988,143.683701 406.810120,146.147751 
	C406.682953,152.976990 409.235046,157.923401 416.093933,160.990341 
	C423.719208,183.320007 431.035400,205.003250 438.632263,226.587708 
	C456.413116,277.107330 474.328552,327.579620 492.189514,378.071075 
z"/>
<path fill="#FDFDFD" opacity="1.000000" stroke="none" 
	d="
M310.232788,374.764221 
	C316.505402,357.086456 322.897888,339.840332 328.988434,322.488251 
	C347.456085,269.873474 365.806458,217.217484 384.208832,164.579773 
	C384.427185,163.955231 384.730225,163.360306 384.979736,162.372314 
	C393.295074,157.365021 393.763367,149.256607 394.378418,141.114075 
	C394.542206,138.945923 395.528320,136.839890 396.136902,134.705338 
	C396.775177,134.770081 397.413452,134.834839 398.051727,134.899582 
	C397.787994,139.682327 397.571625,144.468338 397.244263,149.246719 
	C397.018097,152.547714 396.573334,155.834137 396.368622,159.135895 
	C396.309570,160.088120 396.481079,161.733047 396.993439,161.936676 
	C401.778046,163.838181 399.858063,167.935410 399.931030,171.107483 
	C400.183655,182.090485 400.089539,193.081451 400.176086,204.536224 
	C400.121124,206.986633 399.930206,208.970047 399.926575,210.953812 
	C399.831238,262.731934 399.755310,314.510101 399.676422,366.288239 
	C399.674194,367.748383 399.676117,369.208557 399.676117,371.933289 
	C391.966034,371.933289 384.664001,371.546997 377.415527,372.006012 
	C356.007507,373.361694 334.622162,375.073425 313.220673,376.539795 
	C312.254974,376.605988 311.218231,375.635193 310.232788,374.764221 
z"/>
<path fill="#FCFCFC" opacity="1.000000" stroke="none" 
	d="
M133.020081,182.627319 
	C142.742966,210.708206 152.204697,238.486862 161.938431,266.169861 
	C174.754822,302.620056 187.784988,338.995056 200.919922,375.710144 
	C201.406693,379.557495 198.764771,378.062622 197.396545,377.936249 
	C187.615814,377.032928 177.868530,375.731140 168.078232,374.975281 
	C150.311844,373.603668 132.522949,372.523926 114.743599,371.319916 
	C113.940765,371.265564 113.139549,371.187408 111.674316,371.064850 
	C111.674316,355.646484 111.708000,340.342682 111.668182,325.039124 
	C111.532898,273.047028 111.359558,221.055038 111.257584,169.062881 
	C111.252708,166.577850 110.939995,164.494888 113.580574,161.977997 
	C115.564262,160.087265 114.182930,154.483948 114.000008,150.547318 
	C113.759041,145.361420 113.224525,140.189163 112.816208,135.011032 
	C113.518486,134.877121 114.220764,134.743195 114.923042,134.609268 
	C115.584290,137.262131 116.403381,139.887833 116.865425,142.574951 
	C117.400490,145.686691 117.446106,148.886520 118.047729,151.981323 
	C118.384361,153.712982 118.964005,156.168045 120.210411,156.825470 
	C127.570732,160.707794 127.598244,168.427643 130.174850,174.799301 
	C131.168518,177.256516 131.983536,179.785980 133.020081,182.627319 
z"/>
<path fill="#282828" opacity="1.000000" stroke="none" 
	d="
M492.500458,378.078003 
	C474.328552,327.579620 456.413116,277.107330 438.632263,226.587708 
	C431.035400,205.003250 423.719208,183.320007 416.255615,161.307587 
	C416.687927,160.681641 417.140137,160.429764 417.841003,160.106827 
	C435.256256,209.478500 452.373291,258.938538 469.611298,308.356354 
	C477.632935,331.352692 485.889435,354.267090 494.044342,377.602966 
	C493.636627,378.019867 493.223999,378.052399 492.500458,378.078003 
z"/>
<path fill="#282828" opacity="1.000000" stroke="none" 
	d="
M91.573807,168.968536 
	C82.092163,197.368195 72.471855,225.814148 62.529968,254.147278 
	C48.853207,293.124390 34.927715,332.014221 21.135578,370.950928 
	C20.530144,372.660126 20.191219,374.463745 19.919857,376.586243 
	C19.255503,376.897644 18.399441,376.846191 17.288683,376.903168 
	C27.582924,347.172455 38.197189,317.356171 48.664627,287.488464 
	C62.426701,248.219833 76.073235,208.910706 89.967880,169.320007 
	C90.541458,169.002213 90.916611,168.983383 91.573807,168.968536 
z"/>
<path fill="#D0D0D0" opacity="1.000000" stroke="none" 
	d="
M111.034111,115.669067 
	C112.280769,116.351013 113.117348,117.010323 113.953934,117.669624 
	C112.748459,118.425072 111.485046,119.841499 110.354462,119.742409 
	C109.309677,119.650848 108.407234,117.935196 107.442108,116.934830 
	C108.502747,116.505363 109.563393,116.075890 111.034111,115.669067 
z"/>
<path fill="#CFCFCF" opacity="1.000000" stroke="none" 
	d="
M397.479004,114.823715 
	C399.638763,114.952751 401.471344,115.291481 403.789001,115.719887 
	C404.036133,117.685570 404.306122,119.804604 400.773285,119.960533 
	C397.002350,120.126953 396.895874,117.748482 397.479004,114.823715 
z"/>
</svg>